# Blender v2.80 (sub 75) OBJ File: ''
# www.blender.org
mtllib moneystack_holder.mtl
o money_stack_holder_Cube
v 1.000000 0.876194 -2.147197
v 1.000000 1.000000 -2.023391
v 1.000000 0.963738 -2.110935
v 1.000000 -1.000000 -2.023391
v 1.000000 -0.876194 -2.147197
v 1.000000 -0.963738 -2.110935
v 1.000000 1.000000 2.023391
v 1.000000 0.876194 2.147197
v 1.000000 0.963738 2.110935
v 1.000000 -0.876194 2.147197
v 1.000000 -1.000000 2.023391
v 1.000000 -0.963738 2.110935
v -1.000000 1.000000 -2.023391
v -1.000000 0.876194 -2.147197
v -1.000000 0.963738 -2.110935
v -1.000000 -0.876194 -2.147197
v -1.000000 -1.000000 -2.023391
v -1.000000 -0.963738 -2.110935
v -1.000000 0.876194 2.147197
v -1.000000 1.000000 2.023391
v -1.000000 0.963738 2.110935
v -1.000000 -1.000000 2.023391
v -1.000000 -0.876194 2.147197
v -1.000000 -0.963738 2.110935
v 1.045878 -0.901221 -2.048418
v 1.041938 -0.908235 -2.006110
v -1.041938 -0.908235 -2.006110
v -1.045878 -0.901221 -2.048418
v 1.041938 -0.858913 -2.055432
v -1.041938 -0.858913 -2.055432
v 1.045878 0.901221 2.048418
v 1.041938 0.908235 2.006110
v -1.041938 0.908235 2.006110
v -1.045878 0.901221 2.048418
v 1.041938 0.858913 2.055432
v -1.041938 0.858913 2.055432
v -1.045878 -0.901221 2.048418
v -1.041938 -0.908235 2.006110
v 1.041938 -0.908235 2.006110
v 1.045878 -0.901221 2.048418
v -1.041938 -0.858913 2.055432
v 1.041938 -0.858913 2.055432
v -1.045878 0.901221 -2.048418
v -1.041938 0.908235 -2.006110
v 1.041938 0.908235 -2.006110
v 1.045878 0.901221 -2.048418
v -1.041938 0.858913 -2.055432
v 1.041938 0.858913 -2.055432
v 1.058065 -0.971881 2.017157
v 1.058065 -0.971881 -2.017157
v 1.060515 0.944428 2.091624
v 1.058065 0.869960 2.119078
v 1.058065 0.869960 -2.119078
v 1.060515 0.944428 -2.091624
v 1.060515 -0.944428 -2.091624
v 1.058065 -0.869960 -2.119078
v 1.058065 -0.869960 2.119078
v 1.060515 -0.944428 2.091624
v 1.058065 0.971881 2.017157
v 1.058065 0.971881 -2.017157
v -1.058065 -0.971881 -2.017157
v -1.058065 -0.971881 2.017157
v -1.060515 0.944428 -2.091624
v -1.058065 0.869960 -2.119078
v -1.060515 -0.944428 2.091624
v -1.058065 -0.869960 2.119078
v -1.058065 0.869960 2.119078
v -1.060515 0.944428 2.091624
v -1.058065 -0.869960 -2.119078
v -1.060515 -0.944428 -2.091624
v -1.058065 0.971881 -2.017157
v -1.058065 0.971881 2.017157
vt 0.375000 0.757207
vt 0.625000 0.757207
vt 0.625000 0.992793
vt 0.375000 0.992793
vt 0.390476 0.250000
vt 0.609524 0.250000
vt 0.609524 0.500000
vt 0.390476 0.500000
vt 0.375000 0.007207
vt 0.625000 0.007207
vt 0.625000 0.242793
vt 0.375000 0.242793
vt 0.375000 0.750000
vt 0.625000 0.750000
vt 0.625000 0.500000
vt 0.640476 0.500000
vt 0.640476 0.750000
vt 0.625000 0.250000
vt 0.375000 0.250000
vt 0.625000 0.250000
vt 0.625000 0.500000
vt 0.625000 1.000000
vt 0.375000 1.000000
vt 0.375000 0.500000
vt 0.375000 0.250000
vt 0.375000 0.000000
vt 0.625000 0.000000
vt 0.875000 0.500000
vt 0.875000 0.750000
vt 0.859524 0.750000
vt 0.859524 0.500000
vt 0.375000 0.757207
vt 0.375000 0.992793
vt 0.625000 0.992793
vt 0.625000 0.757207
vt 0.390476 0.250000
vt 0.390476 0.500000
vt 0.609524 0.500000
vt 0.609524 0.250000
vt 0.375000 0.007207
vt 0.375000 0.242793
vt 0.625000 0.242793
vt 0.625000 0.007207
vt 0.625000 0.750000
vt 0.375000 0.750000
vt 0.640476 0.750000
vt 0.640476 0.500000
vt 0.625000 0.500000
vt 0.375000 0.250000
vt 0.625000 0.250000
vt 0.625000 0.250000
vt 0.625000 0.500000
vt 0.375000 1.000000
vt 0.625000 1.000000
vt 0.375000 0.500000
vt 0.375000 0.250000
vt 0.625000 0.000000
vt 0.375000 0.000000
vt 0.875000 0.500000
vt 0.859524 0.500000
vt 0.859524 0.750000
vt 0.875000 0.750000
vt 0.375000 0.992793
vt 0.375000 0.757207
vt 0.859524 0.500000
vt 0.875000 0.500000
vt 0.390476 0.500000
vt 0.375000 0.500000
vt 0.625000 0.757207
vt 0.625000 0.992793
vt 0.609524 0.250000
vt 0.625000 0.250000
vt 0.875000 0.750000
vt 0.859524 0.750000
vt 0.640476 0.750000
vt 0.625000 0.750000
vt 0.375000 0.250000
vt 0.390476 0.250000
vt 0.625000 0.500000
vt 0.609524 0.500000
vt 0.625000 0.500000
vt 0.640476 0.500000
vt 0.625000 0.000000
vt 0.625000 0.007207
vt 0.375000 1.000000
vt 0.375000 0.250000
vt 0.375000 0.242793
vt 0.375000 0.007207
vt 0.375000 0.000000
vt 0.625000 1.000000
vt 0.625000 0.242793
vt 0.625000 0.250000
vt 0.375000 0.750000
vn -0.2144 -0.9588 -0.1862
vn 0.2144 -0.9588 -0.1862
vn 0.2144 -0.9588 0.1862
vn -0.2144 -0.9588 0.1862
vn 0.2144 -0.1862 0.9588
vn 0.2144 0.1862 0.9588
vn -0.2144 0.1862 0.9588
vn -0.2144 -0.1862 0.9588
vn 0.2144 0.9588 -0.1862
vn -0.2144 0.9588 -0.1862
vn -0.2144 0.9588 0.1862
vn 0.2144 0.9588 0.1862
vn -0.2156 -0.6905 -0.6905
vn 0.2156 -0.6905 -0.6905
vn -0.2144 -0.1862 -0.9588
vn 0.2144 -0.1862 -0.9588
vn -0.2156 0.6905 0.6905
vn 0.2156 0.6905 0.6905
vn 0.2156 -0.6905 0.6905
vn -0.2156 -0.6905 0.6905
vn 0.2156 0.6905 -0.6905
vn -0.2156 0.6905 -0.6905
vn 0.2144 0.1862 -0.9588
vn -0.2144 0.1862 -0.9588
vn -0.6218 0.7781 0.0887
vn -0.6218 0.7781 -0.0887
vn 0.6218 0.7781 -0.0887
vn 0.6218 0.7781 0.0887
vn 0.6218 0.0887 -0.7781
vn -0.6218 0.0887 -0.7781
vn -0.6218 -0.0887 -0.7781
vn 0.6218 -0.0887 -0.7781
vn 0.6218 -0.7781 0.0887
vn 0.6218 -0.7781 -0.0887
vn -0.6218 -0.7781 -0.0887
vn -0.6218 -0.7781 0.0887
vn 0.7765 0.4456 0.4456
vn -0.7765 0.4456 0.4456
vn 0.6218 0.0887 0.7781
vn -0.6218 0.0887 0.7781
vn 0.7765 -0.4456 -0.4456
vn -0.7765 -0.4456 -0.4456
vn -0.7765 0.4456 -0.4456
vn 0.7765 0.4456 -0.4456
vn -0.7765 -0.4456 0.4456
vn 0.7765 -0.4456 0.4456
vn -0.6218 -0.0887 0.7781
vn 0.6218 -0.0887 0.7781
vn -0.8744 -0.4785 0.0804
vn -0.8744 -0.4785 -0.0804
vn -0.8744 0.0804 -0.4785
vn -0.8428 0.3806 -0.3806
vn -0.8744 -0.0804 0.4785
vn -0.8428 -0.3806 0.3806
vn 0.8744 -0.4785 -0.0804
vn 0.8744 -0.4785 0.0804
vn 0.8744 0.0804 0.4785
vn 0.8428 0.3806 0.3806
vn 0.8428 0.3806 -0.3806
vn 0.8744 0.0804 -0.4785
vn 0.8744 -0.0804 -0.4785
vn 0.8428 -0.3806 -0.3806
vn 0.8428 -0.3806 0.3806
vn 0.8744 -0.0804 0.4785
vn -0.8428 0.3806 0.3806
vn -0.8744 0.0804 0.4785
vn -0.8428 -0.3806 -0.3806
vn -0.8744 -0.0804 -0.4785
vn -0.8744 0.4785 -0.0804
vn 0.8744 0.4785 0.0804
vn 0.8744 0.4785 -0.0804
vn -0.8744 0.4785 0.0804
usemtl Material
s 1
f 17/1/1 4/2/2 11/3/3 22/4/4
f 10/5/5 8/6/6 19/7/7 23/8/8
f 2/9/9 13/10/10 20/11/11 7/12/12
f 4/2/2 17/1/1 18/13/13 6/14/14
f 6/14/14 18/15/13 16/16/15 5/17/16
f 7/12/12 20/11/11 21/18/17 9/19/18
f 9/20/18 21/21/17 19/7/7 8/6/6
f 22/4/4 11/3/3 12/22/19 24/23/20
f 24/24/20 12/25/19 10/5/5 23/8/8
f 13/10/10 2/9/9 3/26/21 15/27/22
f 15/28/22 3/29/21 1/30/23 14/31/24
f 16/16/15 14/31/24 1/30/23 5/17/16
f 27/32/25 38/33/26 39/34/27 26/35/28
f 42/36/29 41/37/30 36/38/31 35/39/32
f 45/40/33 32/41/34 33/42/35 44/43/36
f 26/35/28 25/44/37 28/45/38 27/32/25
f 25/44/37 29/46/39 30/47/40 28/48/38
f 32/41/34 31/49/41 34/50/42 33/42/35
f 31/51/41 35/39/32 36/38/31 34/52/42
f 38/33/26 37/53/43 40/54/44 39/34/27
f 37/55/43 41/37/30 42/36/29 40/56/44
f 44/43/36 43/57/45 46/58/46 45/40/33
f 43/59/45 47/60/47 48/61/48 46/62/46
f 30/47/40 29/46/39 48/61/48 47/60/47
f 62/63/49 38/33/26 27/32/25 61/64/50
f 64/65/51 47/60/47 43/59/45 63/66/52
f 66/67/53 41/37/30 37/55/43 65/68/54
f 50/69/55 26/35/28 39/34/27 49/70/56
f 52/71/57 35/39/32 31/51/41 51/72/58
f 54/73/59 46/62/46 48/61/48 53/74/60
f 56/75/61 29/46/39 25/44/37 55/76/62
f 58/77/63 40/56/44 42/36/29 57/78/64
f 57/78/64 42/36/29 35/39/32 52/71/57
f 68/79/65 34/52/42 36/38/31 67/80/66
f 70/81/67 28/48/38 30/47/40 69/82/68
f 67/80/66 36/38/31 41/37/30 66/67/53
f 69/82/68 30/47/40 47/60/47 64/65/51
f 63/83/52 43/57/45 44/43/36 71/84/69
f 65/85/54 37/53/43 38/33/26 62/63/49
f 53/74/60 48/61/48 29/46/39 56/75/61
f 51/86/58 31/49/41 32/41/34 59/87/70
f 55/76/62 25/44/37 26/35/28 50/69/55
f 59/87/70 32/41/34 45/40/33 60/88/71
f 60/88/71 45/40/33 46/58/46 54/89/59
f 49/70/56 39/34/27 40/54/44 58/90/63
f 71/84/69 44/43/36 33/42/35 72/91/72
f 72/91/72 33/42/35 34/50/42 68/92/65
f 61/64/50 27/32/25 28/45/38 70/93/67
f 11/3/3 49/70/56 58/90/63 12/22/19
f 2/9/9 60/88/71 54/89/59 3/26/21
f 7/12/12 59/87/70 60/88/71 2/9/9
f 6/14/14 55/76/62 50/69/55 4/2/2
f 9/19/18 51/86/58 59/87/70 7/12/12
f 1/30/23 53/74/60 56/75/61 5/17/16
f 10/5/5 57/78/64 52/71/57 8/6/6
f 12/25/19 58/77/63 57/78/64 10/5/5
f 5/17/16 56/75/61 55/76/62 6/14/14
f 3/29/21 54/73/59 53/74/60 1/30/23
f 8/6/6 52/71/57 51/72/58 9/20/18
f 4/2/2 50/69/55 49/70/56 11/3/3
f 17/1/1 61/64/50 70/93/67 18/13/13
f 20/11/11 72/91/72 68/92/65 21/18/17
f 13/10/10 71/84/69 72/91/72 20/11/11
f 24/23/20 65/85/54 62/63/49 22/4/4
f 15/27/22 63/83/52 71/84/69 13/10/10
f 16/16/15 69/82/68 64/65/51 14/31/24
f 19/7/7 67/80/66 66/67/53 23/8/8
f 18/15/13 70/81/67 69/82/68 16/16/15
f 21/21/17 68/79/65 67/80/66 19/7/7
f 23/8/8 66/67/53 65/68/54 24/24/20
f 14/31/24 64/65/51 63/66/52 15/28/22
f 22/4/4 62/63/49 61/64/50 17/1/1
