# Blender v2.80 (sub 75) OBJ File: ''
# www.blender.org
mtllib paper.mtl
o Cube
v 0.149310 0.472206 -0.271309
v -0.103457 -0.000534 -0.249684
v 0.149310 0.472206 0.271309
v -0.103457 -0.000534 0.249684
v 0.149310 -0.477860 -0.271309
v 0.149310 -0.477860 0.271309
v 0.149310 0.472206 -0.271309
v -0.103457 -0.000534 -0.249684
v 0.149310 0.472206 0.271309
v -0.103457 -0.000534 0.249684
v 0.149310 -0.477860 -0.271309
v 0.149310 -0.477860 0.271309
vt 0.125000 0.500000
vt 0.375000 0.500000
vt 0.375000 0.750000
vt 0.125000 0.750000
vt 0.125000 0.750000
vt 0.125000 0.500000
vt 0.125000 0.500000
vt 0.125000 0.750000
vt 0.375000 0.750000
vt 0.375000 0.500000
vt 0.125000 0.500000
vt 0.125000 0.750000
vn 0.8819 -0.4715 0.0000
vn 0.8837 0.4680 0.0000
vn -0.8819 0.4715 0.0000
vn -0.8837 -0.4680 0.0000
usemtl Material
s off
f 2/1/1 1/2/1 3/3/1 4/4/1
f 2/1/2 4/4/2 6/5/2 5/6/2
f 8/7/3 10/8/3 9/9/3 7/10/3
f 8/7/4 11/11/4 12/12/4 10/8/4
